<?xml version="1.0" standalone="no"?>
<!DOCTYPE svg PUBLIC "-//W3C//DTD SVG 20010904//EN"
 "http://www.w3.org/TR/2001/REC-SVG-20010904/DTD/svg10.dtd">
<svg version="1.0" xmlns="http://www.w3.org/2000/svg"
 width="1077.000000pt" height="1280.000000pt" viewBox="0 0 1077.000000 1280.000000"
 preserveAspectRatio="xMidYMid meet">
<metadata>
Created by potrace 1.15, written by Peter Selinger 2001-2017
</metadata>
<g transform="translate(0.000000,1280.000000) scale(0.100000,-0.100000)"
fill="#000000" stroke="none">
<path d="M1065 12786 c-465 -90 -898 -559 -1029 -1116 -63 -268 -36 -624 64
-838 63 -135 247 -372 395 -509 157 -145 257 -185 318 -129 64 59 55 121 -83
554 -28 90 -54 170 -56 177 -4 10 5 10 48 0 37 -9 65 -24 96 -52 64 -60 129
-77 261 -70 93 5 223 33 295 63 18 7 19 4 13 -39 -4 -26 -25 -102 -48 -170
-37 -109 -42 -132 -42 -217 -1 -162 40 -277 202 -570 191 -344 215 -405 215
-540 0 -74 -4 -92 -28 -139 -31 -60 -116 -154 -177 -196 -32 -23 -39 -33 -39
-62 0 -98 -62 -315 -210 -733 -89 -252 -120 -381 -127 -520 -9 -181 26 -286
133 -399 66 -72 83 -109 109 -245 22 -115 19 -258 -11 -457 -31 -208 -29 -365
6 -488 18 -65 83 -208 121 -269 11 -18 10 -24 -6 -43 -34 -37 -93 -69 -183
-98 -48 -16 -119 -49 -157 -72 l-70 -44 60 -6 c33 -4 131 -7 218 -8 l157 -1
44 -40 c59 -54 109 -155 191 -380 71 -196 154 -381 203 -452 17 -24 77 -91
134 -148 76 -77 113 -124 141 -177 93 -177 106 -261 117 -718 8 -336 10 -366
33 -456 43 -165 130 -306 240 -389 l46 -35 1 -958 0 -958 -38 -47 c-170 -207
-156 -488 28 -543 73 -22 178 22 264 110 l40 41 28 -50 c31 -54 88 -102 145
-121 128 -42 335 63 489 249 289 349 391 775 233 974 -50 63 -117 253 -155
438 -20 98 -27 166 -31 315 -7 226 1 313 67 775 27 190 52 372 56 405 l6 61
-69 69 c-151 152 -272 402 -304 626 -12 91 -3 155 26 179 31 26 139 -35 250
-141 36 -34 97 -71 224 -134 96 -48 181 -93 189 -102 14 -13 8 -14 -50 -11
l-66 3 -7 -49 c-3 -26 -4 -50 -2 -53 3 -2 34 -8 71 -14 36 -5 96 -13 133 -19
82 -11 207 -70 285 -133 218 -179 349 -549 387 -1093 7 -87 19 -221 28 -298
19 -165 14 -281 -22 -458 -38 -190 -57 -252 -224 -698 -60 -162 -125 -347
-144 -410 -95 -314 -87 -552 21 -597 58 -24 112 -10 282 72 85 41 170 78 187
81 65 13 103 -45 103 -153 0 -28 3 -65 6 -82 6 -26 11 -31 35 -31 16 0 60 15
97 34 326 165 545 531 597 999 12 104 6 361 -10 468 -16 106 -33 179 -80 329
-81 264 -68 556 40 845 40 107 152 337 257 526 41 74 69 138 76 174 22 109 93
191 214 248 164 78 372 76 462 -4 71 -62 85 -186 36 -324 -20 -58 -20 -62 -4
-134 13 -57 15 -104 11 -210 -7 -190 -39 -323 -154 -646 -41 -115 -86 -241
-99 -280 -78 -232 -101 -430 -69 -594 10 -50 20 -91 24 -90 3 0 37 36 74 80
37 43 89 91 115 106 41 24 57 28 127 28 70 -1 88 -5 142 -33 34 -17 107 -66
162 -107 118 -89 94 -93 241 42 166 153 266 283 345 448 95 197 120 318 120
570 0 246 -21 364 -115 660 -56 176 -65 242 -65 475 0 203 6 256 42 390 32
115 87 190 140 190 33 0 90 -38 151 -104 58 -61 71 -65 253 -81 165 -15 190
63 47 146 -40 23 -104 60 -142 82 -85 49 -166 125 -166 156 0 13 13 35 29 50
41 38 305 167 393 191 87 24 197 26 261 4 96 -33 171 -129 210 -268 15 -54 21
-118 26 -271 3 -110 9 -205 14 -212 23 -36 49 -209 54 -363 4 -140 1 -201 -23
-405 -38 -327 -40 -625 -6 -791 l23 -111 -41 -65 c-46 -74 -101 -202 -127
-298 -13 -47 -18 -103 -18 -205 0 -165 14 -218 76 -288 95 -108 221 -98 359
29 l58 54 40 -68 c123 -208 285 -227 428 -53 104 125 223 408 285 676 21 89
23 124 23 310 -2 294 -18 453 -109 1070 -85 577 -89 628 -112 1412 -5 169 8
278 41 356 l15 37 53 -6 c30 -3 72 -1 95 5 42 11 44 11 94 -29 44 -34 58 -40
100 -40 37 0 53 5 69 22 11 12 20 26 20 30 0 25 -35 69 -92 115 -81 66 -155
145 -168 179 -8 20 -7 32 5 50 18 28 27 29 60 8 13 -8 50 -18 82 -21 35 -4 72
-15 93 -29 110 -72 216 -69 234 8 8 35 -37 88 -111 130 -29 16 -53 36 -53 43
0 8 21 69 46 137 101 271 117 336 118 483 0 88 -5 137 -18 182 -32 110 -5 140
115 128 l66 -6 12 47 c13 53 13 53 -49 79 -25 10 -49 22 -53 25 -4 4 -1 38 7
76 50 222 48 395 -9 1069 -9 105 -15 225 -12 268 5 69 10 85 41 133 l36 54
-82 0 c-155 0 -185 32 -258 274 -23 77 -53 162 -67 189 -32 64 -111 148 -167
178 -39 20 -45 28 -56 76 -25 115 -93 252 -174 355 -89 111 -201 196 -520 393
-195 120 -330 228 -416 330 -72 86 -155 147 -295 217 -238 120 -515 169 -819
148 -272 -20 -458 -58 -911 -190 -148 -43 -301 -83 -340 -89 -122 -18 -294
-24 -467 -16 l-166 7 18 43 c35 81 70 206 97 343 25 128 27 155 27 417 1 287
-6 361 -50 540 -54 219 -166 466 -281 620 -136 182 -327 339 -531 436 -101 49
-405 150 -507 170 -105 21 -406 18 -520 -5 -306 -61 -633 -213 -903 -419
l-107 -82 -165 0 c-301 1 -450 48 -655 205 -44 34 -116 89 -160 122 -132 101
-274 158 -480 194 -125 22 -563 29 -660 10z m405 -955 c27 -5 40 -16 57 -46
29 -51 29 -55 -6 -55 -30 0 -168 65 -211 100 l-25 20 75 -6 c41 -4 91 -9 110
-13z m3340 -12 c-64 -30 -263 -109 -266 -106 -1 1 9 18 21 37 19 30 34 39 96
58 91 27 104 29 154 31 l40 1 -45 -21z m600 -964 c15 -140 58 -356 103 -507
34 -116 34 -118 13 -118 -11 0 -118 10 -236 22 -140 14 -286 21 -418 21 l-203
1 80 80 c44 45 84 92 89 106 38 103 18 225 -66 393 -33 64 -57 117 -55 117 2
0 58 -18 125 -41 142 -48 197 -49 291 -6 63 29 158 113 215 192 l37 50 7 -100
c4 -55 12 -149 18 -210z m330 -770 c-12 -15 -30 -12 -30 6 0 5 10 9 21 9 18 0
19 -2 9 -15z m4482 -4549 c11 -19 10 -20 -13 -5 -13 9 -30 19 -38 23 -11 7
-11 10 0 17 15 9 35 -4 51 -35z m-172 -322 l25 -13 -24 -1 c-36 0 -101 22 -95
32 7 11 59 1 94 -18z m-5218 -1551 c14 -12 15 -20 7 -36 -11 -19 -12 -19 -35
9 -13 16 -29 37 -34 46 -10 16 -8 17 17 7 15 -6 36 -17 45 -26z"/>
</g>
</svg>
